# xmcd
#
# Track frame offsets: 
#        150
#        32780
#        43341
#        57995
#        62948
#        68681
#        72963
#        77120
#        81373
#        88202
#        95321
#        99790
#        105253
#        117364
#        132348
#        155730
#        178758
#
# Disc length: 3027 seconds
#
# Revision: 0
# Processed by: cddbd v1.5.2PL0 Copyright (c) Steve Scherf et al.
# Submitted via: ExactAudioCopyFreeDBPlugin 1.0
#
DISCID=ea0bd111
DTITLE=Matthias Eisenberg - Flora (Jehmlich Orgel in der Schlosskapell
DTITLE=e Weesenstein)
DYEAR=1900
DGENRE=Orgelmusik
TTITLE0=Johann Sebastian Bach - Piece d' Orgue  BWV 572
TTITLE1=Johann Sebastian Bach - Wenn wir in höchsten Nöten sein
TTITLE2=Johann Sebastian Bach - Jesus bleibet meine Freude
TTITLE3=J. G. Walther - Jesu, meine Freude  Particia 1
TTITLE4=J. G. Walther - Jesu, meine Freude  Particia 2
TTITLE5=J. G. Walther - Jesu, meine Freude  Particia 3
TTITLE6=J. G. Walther - Jesu, meine Freude  Particia 4
TTITLE7=J. G. Walther - Jesu, meine Freude  Particia 5
TTITLE8=J. G. Walther - Jesu, meine Freude  Particia 6
TTITLE9=J. G. Walther - Jesu, meine Freude  Particia 7
TTITLE10=J. G. Walther - Jesu, meine Freude  Particia 8
TTITLE11=J. G. Walther - Jesu, meine Freude  Particia 9
TTITLE12=J. G. Walther - Jesu, meine Freude  Particia 10
TTITLE13=J. K. Kerll - Capriccio Cucu
TTITLE14=F. Mendelssohn-Bartholdy - Andante
TTITLE15=Robert Schumann - Fuge 1 über den Namen BACH op.60 Nr.1
TTITLE16=Matthias Eisenberg (Improvisation) - Wie lieblich ist der Mai
TTITLE16=en
EXTD=
EXTT0=
EXTT1=
EXTT2=
EXTT3=
EXTT4=
EXTT5=
EXTT6=
EXTT7=
EXTT8=
EXTT9=
EXTT10=
EXTT11=
EXTT12=
EXTT13=
EXTT14=
EXTT15=
EXTT16=
PLAYORDER=
